<?xml version="1.0" encoding="utf-8"?>
<!-- Generator: Adobe Illustrator 24.2.3, SVG Export Plug-In . SVG Version: 6.00 Build 0)  -->
<svg version="1.1" id="Layer_1" xmlns="http://www.w3.org/2000/svg" xmlns:xlink="http://www.w3.org/1999/xlink" x="0px" y="0px"
	 viewBox="0 0 73.3 13.4" style="enable-background:new 0 0 73.3 13.4;" xml:space="preserve">
<style type="text/css">
	.st0{opacity:0.85;}
	.st1{fill:#62DB45;}
</style>
<g>
	<path d="M0,0.9h3.8v0.8l-1,0.2l1.4,5.3l0.2,1.1l0.2-1.1L5.9,3l-0.3-1L4.8,1.8V0.9h4v0.8L7.7,1.9l1.4,5.3l0.3,1.2l0.2-1.2l1.3-5.3
		l-1-0.2V0.9h2.9v0.8L12,1.9l-2.2,8H8L6.4,4.6L4.9,9.9H3.1l-2.4-8L0,1.8V0.9z"/>
	<path d="M12.7,9c-0.5-0.6-0.8-1.5-0.8-2.5c0-0.7,0.1-1.4,0.4-1.9c0.3-0.5,0.7-0.9,1.1-1.2C14,3.1,14.5,3,15.2,3
		c0.8,0,1.5,0.2,1.9,0.6c0.4,0.4,0.7,1,0.7,1.8c0,0.5,0,0.9-0.1,1.2H14c0,0.7,0.2,1.2,0.5,1.6c0.3,0.4,0.7,0.5,1.2,0.5
		c0.3,0,0.6,0,0.9-0.1c0.3-0.1,0.6-0.2,0.8-0.3L17.7,9c-0.2,0.2-0.6,0.5-1.1,0.7c-0.5,0.2-1,0.3-1.5,0.3C14,10,13.2,9.7,12.7,9z
		 M15.9,5.9l0-0.5c0-0.5-0.1-0.9-0.2-1.2C15.6,4,15.4,3.8,15,3.8c-0.3,0-0.6,0.1-0.8,0.4c-0.2,0.3-0.3,0.8-0.3,1.6H15.9z"/>
	<path d="M17.7,0.3L20.1,0h0l0.4,0.2v3.5c0.2-0.2,0.5-0.4,0.8-0.5c0.3-0.1,0.6-0.2,1-0.2c0.8,0,1.4,0.3,1.9,0.8
		c0.5,0.5,0.7,1.4,0.7,2.5c0,0.7-0.1,1.3-0.4,1.9s-0.7,1-1.3,1.3C22.6,9.8,22,10,21.2,10c-0.7,0-1.3-0.1-1.7-0.2
		c-0.5-0.1-0.8-0.2-0.9-0.3V1.1L17.7,1V0.3z M20.9,4.3c-0.2,0.1-0.3,0.2-0.4,0.3V9c0,0.1,0.1,0.1,0.3,0.2c0.1,0,0.3,0.1,0.5,0.1
		c0.4,0,0.8-0.2,1.1-0.7c0.3-0.5,0.4-1.2,0.4-2.1c0-0.8-0.1-1.3-0.3-1.7c-0.2-0.4-0.5-0.5-0.9-0.5C21.3,4.2,21.1,4.2,20.9,4.3z"/>
	<path d="M28.4,8.8c-0.7-0.8-1.1-1.9-1.1-3.3c0-0.9,0.2-1.8,0.6-2.5c0.4-0.7,0.9-1.2,1.6-1.6c0.7-0.4,1.4-0.6,2.3-0.6
		c0.3,0,0.7,0,1,0.1S33.4,1,33.9,1c0.3,0.1,0.6,0.1,0.7,0.1l-0.1,2.7h-1.3L32.7,2c-0.2-0.2-0.5-0.3-1.1-0.3c-0.6,0-1.1,0.3-1.5,0.9
		c-0.4,0.6-0.5,1.5-0.5,2.7c0,1.2,0.2,2.1,0.5,2.8c0.3,0.7,0.9,1,1.5,1c0.3,0,0.6,0,0.8-0.1c0.2-0.1,0.3-0.2,0.4-0.3l0.5-1.3
		l1.2,0.1l-0.2,2c-0.2,0-0.5,0.1-0.9,0.2c-0.3,0.1-0.6,0.2-0.9,0.2c-0.3,0-0.6,0.1-1.1,0.1C30.2,10,29.1,9.6,28.4,8.8z"/>
	<path d="M35.4,4.6c0.3-0.5,0.7-0.9,1.2-1.2C37.1,3.1,37.7,3,38.3,3c1,0,1.8,0.3,2.4,0.9s0.9,1.4,0.9,2.5c0,0.8-0.2,1.5-0.5,2
		c-0.3,0.5-0.7,0.9-1.2,1.2c-0.5,0.3-1.1,0.4-1.7,0.4c-1,0-1.8-0.3-2.4-0.9s-0.9-1.4-0.9-2.5C34.9,5.8,35.1,5.1,35.4,4.6z M39.1,8.5
		c0.2-0.4,0.3-1.1,0.3-1.9c0-0.9-0.1-1.6-0.3-2.1c-0.2-0.4-0.5-0.7-0.9-0.7c-0.8,0-1.2,0.9-1.2,2.6c0,0.9,0.1,1.6,0.3,2.1
		c0.2,0.4,0.5,0.7,0.9,0.7C38.7,9.1,38.9,8.9,39.1,8.5z"/>
	<path d="M41.4,3.2h3.4v0.8l-0.8,0.1l1,3.2l0.3,1.1l0.3-1.1l1-3.2l-0.7-0.1V3.2h2.8v0.8l-0.6,0.1l-2.2,5.9h-1.6l-2.4-5.9l-0.5-0.1
		V3.2z"/>
	<path d="M49.2,9c-0.5-0.6-0.8-1.5-0.8-2.5c0-0.7,0.1-1.4,0.4-1.9c0.3-0.5,0.7-0.9,1.1-1.2C50.4,3.1,51,3,51.7,3
		c0.8,0,1.5,0.2,1.9,0.6c0.4,0.4,0.7,1,0.7,1.8c0,0.5,0,0.9-0.1,1.2h-3.8c0,0.7,0.2,1.2,0.5,1.6s0.7,0.5,1.2,0.5
		c0.3,0,0.6,0,0.9-0.1c0.3-0.1,0.6-0.2,0.8-0.3L54.2,9c-0.2,0.2-0.6,0.5-1.1,0.7c-0.5,0.2-1,0.3-1.5,0.3C50.5,10,49.7,9.7,49.2,9z
		 M52.4,5.9l0-0.5c0-0.5-0.1-0.9-0.2-1.2c-0.1-0.3-0.4-0.4-0.7-0.4c-0.3,0-0.6,0.1-0.8,0.4c-0.2,0.3-0.3,0.8-0.3,1.6H52.4z"/>
	<path d="M54.7,9l0.7-0.1V4.4l-0.7-0.2V3.3l2-0.3h0l0.3,0.3v0.3l0,1h0c0.1-0.2,0.2-0.4,0.4-0.6c0.2-0.2,0.5-0.5,0.8-0.6
		c0.3-0.2,0.6-0.3,1-0.3c0.2,0,0.4,0,0.5,0.1v2.1c-0.1-0.1-0.3-0.2-0.4-0.2c-0.1-0.1-0.3-0.1-0.6-0.1c-0.3,0-0.5,0-0.8,0.1
		c-0.2,0.1-0.4,0.2-0.6,0.3v3.7l1.3,0.1v0.8h-4V9z"/>
	<path d="M60.8,9C60.3,8.4,60,7.6,60,6.5c0-0.7,0.1-1.4,0.4-1.9c0.3-0.5,0.7-0.9,1.1-1.2C62.1,3.1,62.6,3,63.3,3
		c0.8,0,1.5,0.2,1.9,0.6c0.4,0.4,0.7,1,0.7,1.8c0,0.5,0,0.9-0.1,1.2H62c0,0.7,0.2,1.2,0.5,1.6c0.3,0.4,0.7,0.5,1.2,0.5
		c0.3,0,0.6,0,0.9-0.1s0.6-0.2,0.8-0.3L65.8,9c-0.2,0.2-0.6,0.5-1.1,0.7c-0.5,0.2-1,0.3-1.5,0.3C62.1,10,61.3,9.7,60.8,9z M64,5.9
		l0-0.5c0-0.5-0.1-0.9-0.2-1.2c-0.1-0.3-0.4-0.4-0.7-0.4c-0.3,0-0.6,0.1-0.8,0.4c-0.2,0.3-0.3,0.8-0.3,1.6H64z"/>
	<path d="M67,9.1c-0.5-0.6-0.7-1.4-0.7-2.5c0-0.7,0.1-1.3,0.4-1.8c0.3-0.6,0.7-1,1.2-1.3s1.2-0.5,2-0.5c0.2,0,0.5,0,0.7,0.1V1.2
		L69.5,1V0.2L72.1,0h0.1l0.4,0.3V9h0.6v0.8C72.6,9.9,72,10,71.6,10c-0.3,0-0.5,0-0.6-0.1s-0.2-0.3-0.2-0.5V9
		c-0.2,0.3-0.5,0.5-0.8,0.7c-0.4,0.2-0.7,0.3-1.1,0.3C68.1,10,67.5,9.7,67,9.1z M70.2,8.8c0.2-0.1,0.3-0.2,0.4-0.3V4.1
		c-0.1-0.1-0.2-0.1-0.3-0.2S70,3.8,69.9,3.8c-0.4,0-0.8,0.2-1.1,0.6c-0.3,0.4-0.4,1.1-0.4,2.1c0,0.8,0.1,1.4,0.3,1.8
		c0.2,0.4,0.5,0.6,0.9,0.6C69.8,8.9,70,8.8,70.2,8.8z"/>
</g>
<g class="st0">
	<path class="st1" d="M29.2,13.1l0.5,0c-0.1,0-0.2,0-0.2,0C29.4,13,29.3,13,29.2,13.1z"/>
	<path class="st1" d="M30.2,13L30.2,13l0.2,0C30.3,13,30.2,13,30.2,13z"/>
	<path class="st1" d="M31,12.9c-0.1,0-0.3,0-0.4,0C30.7,12.9,30.8,12.9,31,12.9z"/>
	<path class="st1" d="M30.3,12.9C30.4,12.9,30.4,12.9,30.3,12.9L30.3,12.9l0.2,0C30.5,12.9,30.4,12.9,30.3,12.9z"/>
	<path class="st1" d="M30.3,12.9c-0.1,0-0.1,0-0.2,0C30.2,12.9,30.3,12.9,30.3,12.9z"/>
	<path class="st1" d="M30.5,12.6c0.1,0,0.1,0.1,0.2,0c0.4-0.1,0.7-0.1,1.1-0.2c0.2,0,0.4,0,0.6,0c0.4-0.1,1.4-0.3,0.8-0.2
		c-0.9,0.1-1.5,0.2-2.2,0.3c-0.6,0.1-1.3,0.2-1.9,0.3c-0.2,0-0.4,0-0.5,0c0.2,0,0.5,0,0.7,0C29.6,12.8,30,12.6,30.5,12.6z"/>
	<path class="st1" d="M25.7,13.4c0.1,0,0.2-0.1,0.2-0.1c0.4,0,0.8,0,1.1-0.1l-0.2,0c-0.2,0-0.2,0.1,0,0.1c-0.5,0-0.9,0-1.3,0.1
		C25.6,13.4,25.6,13.4,25.7,13.4z"/>
	<path class="st1" d="M25.3,13.4c0.1,0,0.2,0,0.3,0l0,0C25.5,13.3,25.4,13.4,25.3,13.4L25.3,13.4z"/>
	<path class="st1" d="M32.8,12.6c1.1-0.1,2.1-0.2,3.2-0.3c0.1,0,0.1-0.1,0.2,0c0.1,0,0.2,0,0.2,0l0.4,0c0.1,0,0.1,0,0.2,0l0,0
		c0.1,0,0.1,0,0,0c0,0-0.1,0-0.2,0c0,0,0.1,0,0.2,0c0.1,0,0.1,0,0.2,0c0.1,0,0.3,0,0.4,0c-0.2,0-0.3,0-0.4,0l-0.3,0l-0.1,0l1-0.1
		c0.1,0,0.1,0,0.2,0c0.2,0,0.5-0.1,0.6,0l0.2,0l0,0l0.1,0l0.8,0c0.2,0,0.4-0.1,0.5-0.1c0,0,0.1,0,0.2,0c0.1,0,0.2,0,0.3-0.1
		c-0.1,0-0.3,0-0.4-0.1c-0.2,0-0.4,0.1-0.6,0c0.2,0.1,0.4-0.1,0.6,0c0.1,0,0.2,0,0.4,0.1c0.2,0,0.6,0,0.8,0c-0.3,0.1-0.6,0-0.8,0
		c-0.1,0-0.2,0-0.3,0.1c-0.1,0-0.2,0-0.2,0c-0.1,0-0.3,0.1-0.5,0.1c0.5,0,1,0,1.5,0c3.3-0.1,6.4-0.2,9.9-0.1c1.9,0,3.7,0.1,5.4,0.2
		c3.5,0.2,6.7,0.1,10.3,0.4c1.4,0.1,3.9,0.2,5.2,0.2c1.8-0.1,0.9-0.5,0.8-0.6c-1.1-0.4-1.9-0.2-4.1-0.5c1.5,0.2-1.1,0.2-2.5-0.1
		c-2.1-0.4-5-0.2-7.5-0.3c-0.6,0-1.3,0-2.1,0c-3.9-0.2-7.6,0-11.8,0.1c-1.1,0-2.1,0.2-3,0.2c-0.7,0-1.4,0-1.9,0.1
		c-0.9,0-1.6,0.1-2.3,0.2c0.8-0.1,1.4-0.1,2.3-0.2c0.6,0-0.4,0.1-0.8,0.2c-0.2,0-0.4-0.1-0.6,0c-0.4,0-0.7,0.1-1.1,0.1
		c-0.2,0-0.2-0.1-0.2,0c-0.5,0.1-0.9,0.2-1.3,0.2c-0.3,0-0.5,0-0.7,0c-0.1,0-0.3,0-0.4,0l-0.3,0c0.1,0,0.1,0.1,0.1,0.1
		c-0.1,0-0.4,0-0.5,0c0.1,0,0.4,0,0.5,0c0,0-0.1-0.1-0.1-0.1c-0.7,0.1-1.5,0.2-2.2,0.3l0,0c0.4-0.1,0.9-0.1,1.3-0.1
		c-0.2,0-0.2,0,0-0.1l0.2,0c-0.4,0.1-0.8,0.1-1.2,0.1c0,0-0.2,0-0.2,0.1c-0.1,0-0.1,0-0.2-0.1c-0.1,0-0.2,0-0.3,0
		C32.2,12.6,32.8,12.6,32.8,12.6z"/>
	<path class="st1" d="M37.3,12.3c-0.1,0-0.1,0-0.2,0l0.9,0C37.8,12.2,37.5,12.2,37.3,12.3z"/>
</g>
</svg>
